<?xml version="1.0" encoding="UTF-8"?>
<svg id="Camada_2" data-name="Camada 2" xmlns="http://www.w3.org/2000/svg" viewBox="0 0 798.96 380.1">
  <defs>
    <style>
      .cls-1 {
        letter-spacing: -.01em;
      }

      .cls-2 {
        letter-spacing: 0em;
      }

      .cls-3 {
        font-family: Poppins-Medium, 'Poppins Medium';
        font-size: 36px;
        font-weight: 500;
      }

      .cls-3, .cls-4, .cls-5, .cls-6 {
        fill: #d69eba;
      }

      .cls-7 {
        letter-spacing: -.04em;
      }

      .cls-8 {
        letter-spacing: 0em;
      }

      .cls-9 {
        letter-spacing: 0em;
      }

      .cls-4 {
        font-size: 84px;
      }

      .cls-4, .cls-6 {
        font-family: MinionConceptRoman-Display, 'Minion Variable Concept';
        font-variation-settings: 'wght' 400, 'opsz' 36;
      }

      .cls-5 {
        stroke-width: 0px;
      }

      .cls-6 {
        font-size: 97px;
      }

      .cls-10 {
        letter-spacing: .02em;
      }

      .cls-11 {
        letter-spacing: 0em;
      }
    </style>
  </defs>
  <g id="Camada_1-2" data-name="Camada 1">
    <g>
      <g>
        <text class="cls-6" transform="translate(0 319.99)"><tspan x="0" y="0">L</tspan></text>
        <g>
          <text class="cls-6" transform="translate(405.76 320.52)"><tspan x="0" y="0">M</tspan></text>
          <text class="cls-4" transform="translate(48.98 320.07) scale(1.09 1)"><tspan class="cls-2" x="0" y="0">E</tspan><tspan class="cls-11" x="44.27" y="0">I</tspan><tspan class="cls-2" x="70.9" y="0">L</tspan><tspan x="113.99" y="0">I</tspan></text>
          <text class="cls-4" transform="translate(265.53 321.07) scale(1.09 1)"><tspan class="cls-10" x="0" y="0">N</tspan><tspan x="61.57" y="0">E</tspan></text>
          <text class="cls-4" transform="translate(554.41 321.07) scale(1.09 1)"><tspan class="cls-1" x="0" y="0">R</tspan><tspan class="cls-9" x="47.54" y="0">T</tspan><tspan class="cls-11" x="99.37" y="0">I</tspan><tspan class="cls-8" x="126" y="0">N</tspan><tspan x="185.8" y="0">S</tspan></text>
          <path class="cls-5" d="M242.48,320.52v-1.02c5.15-.85,6.55-1.53,5.43-4.59-1.22-3.66-1.59-4.88-4.4-11.93l-22.54.04c-2.06,5.44-2.06,4.75-3.46,8.83-2.06,5.78-.65,6.38,6.46,7.65v1.02h-19.55v-1.02c5.24-.85,6.83-1.44,10.29-9.44l19.46-45.82,1.31-.17c5.8,15.47,11.88,31.03,18.15,46.84,2.9,7.4,4.02,7.4,9.92,8.58v1.02h-21.05ZM232.37,273.85c-2.99,7.23-7.59,19.16-10.49,26.22l20.55-.03-10.06-26.19Z"/>
          <path class="cls-5" d="M530.95,320.52v-1.02c5.15-.85,6.55-1.53,5.43-4.59-1.22-3.66-1.59-4.88-4.4-11.93l-22.54.04c-2.06,5.44-2.06,4.75-3.46,8.83-2.06,5.78-.65,6.38,6.46,7.65v1.02h-19.55v-1.02c5.24-.85,6.83-1.44,10.29-9.44l19.46-45.82,1.31-.17c5.8,15.47,11.88,31.03,18.15,46.84,2.9,7.4,4.02,7.4,9.92,8.58v1.02h-21.05ZM520.85,273.85c-2.99,7.23-7.59,19.16-10.49,26.22l20.55-.03-10.06-26.19Z"/>
          <text class="cls-3" transform="translate(5.53 240.49)"><tspan x="0" y="0">S</tspan><tspan class="cls-7" x="17.75" y="0"> </tspan><tspan x="23.9" y="0">T U D I O</tspan></text>
          <text class="cls-3" transform="translate(483.03 371.1)"><tspan x="0" y="0">E</tspan></text>
          <text class="cls-3" transform="translate(525.9 371.1)"><tspan x="0" y="0">S</tspan></text>
          <text class="cls-3" transform="translate(567.96 371.1)"><tspan x="0" y="0">T</tspan></text>
          <text class="cls-3" transform="translate(610.21 371.1)"><tspan x="0" y="0">É</tspan></text>
          <text class="cls-3" transform="translate(652.21 371.1)"><tspan x="0" y="0">T</tspan></text>
          <text class="cls-3" transform="translate(693.15 371.1)"><tspan x="0" y="0">I</tspan></text>
          <text class="cls-3" transform="translate(724.74 371.1)"><tspan x="0" y="0">C</tspan></text>
          <text class="cls-3" transform="translate(769.91 370.1)"><tspan x="0" y="0">A</tspan></text>
        </g>
      </g>
      <g>
        <path class="cls-5" d="M255.73,179.26c8.68-17,16.95-34.22,24.77-51.63-24.79.36-49.65-6.13-71.1-18.57-2.12-1.23-5.71-4.96-1.66-6.05,2.54-.69,7.41,3.07,9.46,4.28,17.83,10.44,38.47,16.04,59.13,16.05,2.2,0,4.56-.11,6.34-1.42,1.44-1.06,2.27-2.74,3.03-4.35,15.29-32.6,25.42-68.43,48.45-96.11,6.98-8.39,15.4-16.09,25.78-19.44,9.39-3.03,20.95-1.64,27.22,5.98,6.66,8.12,5.29,20.07,2.31,30.13-10.63,35.9-38,66.46-72.5,80.98-4.77,2.01-9.75,3.77-13.79,7-5,4-8.1,9.85-11.05,15.53-9.49,18.25-18.99,36.5-28.48,54.74,33.67,8.42,65.95,25.52,100.65,24.77,8.49-.18,17.55-1.73,23.68-7.61,7.74-7.43,5.88-20.39.34-28.86-.32-.49.27-1.07.76-.75,6.97,4.5,10.21,14.02,8.26,22.22-2.14,9-9.47,16.16-17.95,19.85s-18.01,4.29-27.24,3.7c-28.74-1.85-55.45-14.58-82.72-23.84-3.99-1.35-8.21-2.65-12.34-1.88-4.74.89-8.51,4.31-12.5,7.01-8.84,6.01-19.88,9.24-30.53,8.33-5.03-.43-10.17-2.19-13.32-6.41-1.27-1.7-1.97-3.8-1.88-5.93.2-4.77,3.98-8.27,7.62-9.54,9-3.16,18.36-2.95,28.78-2.5,4.08.18,8.61,1.45,11.88-1.01,1.61-1.21,2.6-3.06,3.53-4.84,1.71-3.27,3.4-6.55,5.08-9.83ZM383.4,21.78c.06-3.94-.89-7.69-2.19-11.33-1.52-4.23-5.53-7.06-10.02-7.12-8.13-.11-14.59,3.47-20.07,9.1-8.45,8.66-13.2,19.55-17.66,30.48-10.03,24.59-17.5,50.17-28.73,74.3-.32.69-1.02,1.52-.25,2.24.73.67,1.56,0,2.3-.24,8.29-2.63,16.22-6.06,23.51-10.86,20.78-13.67,35.44-32.4,45.25-55.07,4.35-10.05,7.15-20.53,7.87-31.5ZM224.95,198.15c-8.31,0-12.6.81-16.64,3.15-4.82,2.79-5.39,7.36-1.38,11.26,3.26,3.18,9.81,3.95,13.27,3.24,16.53-3.61,20.52-10.68,21.21-11.85q.32-.54.53-1.18c.74-2.2.17-3.14-1.32-3.35-5.2-.73-10.4-1.38-15.67-1.28Z"/>
        <path class="cls-5" d="M608.53,185.66c-5.72,16.73-17.57,37.29-35.47,42.58-8.92,2.38-18.1-1.64-23.49-9.25-6.7-9.25-8.11-21.37-8.65-32.55-2.49-54.46,21.82-107,29.42-161.25.42-19.39-18.44,8.69-21.93,13.3-24.72,34.91-38.53,75.86-57,114.03-8.89,20.11-22.07,22.91-22.91-2.36-1.15-21.7.28-43.74-4.22-65.09-.69-3.28-3.19-13.18-8.19-12.52-5.59.74-6.23,11.47-7.15,15.44-1.64,7.03-3.33,14.05-5.08,21.06-3.49,14.01-7.2,27.97-11.13,41.87-1.65,5.84-3.33,11.66-5.06,17.47-.31,1.06-3.99,14.21-5.92,12.27-2.32-2.43-2.66-2.78-4.17-4.5-.02-.03.02-.07.02-.1,2.23-9.1,5.85-17.8,8.33-26.83,5.08-18.49,8.92-37.32,13.11-56.03,1.31-5.87,2.78-11.72,4.33-17.53.99-3.69,2.25-7.67,4.15-10.83,8.43-13.58,19.4-1.45,22.66,9.02,6.91,19.37,5.32,41.08,5.77,62.35-.11,7.64,2.2,22.76,10.41,9.42,20.03-43.25,33.44-91.02,65.61-127.56,5.53-6.08,11.33-13.1,18.64-16.8,13.91-6.22,12.67,12.03,10.76,20.67-9.69,58.99-39.8,116.83-29.23,176.63,4.51,17.29,21.38,25.69,34.87,11.54,5.01-5.14,8.68-11.76,12.29-18.19,3.1-5.55,5.84-10.75,8.64-13.8,3.9-3.54,1.2,5.66.64,7.36l-.06.18Z"/>
        <g>
          <path class="cls-5" d="M442.91,10.66c.15.02.31.11.44.21,1,.69,1.95,1.45,2.84,2.28s1.73,1.72,2.51,2.66c.78.94,1.49,1.94,2.13,2.98s1.22,2.12,1.72,3.24c2.3,5.14,3.28,10.96,2.36,16.54-.1.6-.22,1.2-.36,1.8-.3,1.31-.7,2.6-1.19,3.85s-1.07,2.47-1.74,3.63c-.36.63-.75,1.24-1.16,1.84-2.33-4.03-3.15-8.75-3.55-13.39-.09-1.02-.16-2.03-.23-3.05s-.13-2.05-.2-3.07-.15-2.04-.25-3.06-.23-2.03-.39-3.04c-.05-.34-.11-.69-.18-1.03-.03-.16-.06-.32-.09-.48-.03-.15-.05-.3-.15-.42-.03-.04-.06-.07-.1-.09-.15-.07-.13.07-.14.17,0,.12,0,.24-.01.35,0,.24-.02.47-.03.71-.02.47-.03.95-.05,1.42-.03.95-.06,1.9-.08,2.85s-.03,1.9-.03,2.86.01,1.9.04,2.85.07,1.89.13,2.84.14,1.88.25,2.82.23,1.86.38,2.79.33,1.84.54,2.75.45,1.81.72,2.71.58,1.78.93,2.65c.15.38.31.76.47,1.13-4.93-2.89-10.34-5.44-16.06-5.41,4.82,1.47,9.71,2.98,13.93,5.73-1.96,2.15-5.23,2.71-8.07,2.06s-5.33-2.32-7.65-4.09-4.56-3.67-7.19-4.93c-.24-.11-.53-.35-.4-.58.05-.09.14-.13.23-.18,6.15-2.98,13.51-3.33,19.91-.96-2.06-2.25-4.78-4.04-5.99-6.84-1.36-3.15-.46-6.82.95-9.95,1.41-3.13,3.34-6.07,4.1-9.42.37-1.63.46-3.32.25-4.98-.03-.27-.05-.6.19-.74.08-.05.17-.06.26-.04Z"/>
          <path class="cls-5" d="M412.5,79.19c7.04-2.74,12.92-7.74,18.54-12.65,7.77-6.81,16.09-15.99,27.43-14.58,1.9.24,1.07.68-.38.95-2.01.45-4.11.98-6.01,1.87-4.82,2.58-8.78,6.47-12.45,10.46-5.48,5.77-10.57,12.02-16.94,16.85-1.63,1.29-3.45,2.31-5.21,3.4-.86.53-1.71,1.04-2.59,1.52-1.2.57-1.69,1.33-.83,2.49,1.86,2.4,1.75,4.75,0,7.18-.5.71-1.09,1.37-1.44,2.14-.85,2.42-1.57,4.93-2.58,7.29-1.11,2.53-2.08,5.12-2.62,7.84-.71,3.37-.9,6.82-1.36,10.23-.65,4.12-1.75,8.18-3.44,12-.84,2.04.34,4.1.68,6.13.9,3.41,1.77,6.87,2.2,10.39.92,4.83,1.06,9.74,1.68,14.6.43,3.73,1.31,7.41,2.29,11.05,1.43,6,3.86,11.69,5.5,17.63.42,1.55.94,3.08,1.17,4.68.21,1.24.12,2.59.68,3.74.49,1.09,1.8,1.54,2.75,2.22.63.45.57,1.3,0,1.84-.9.91-2.29.76-3.5.59-1-.15-2.1-.24-2.95-.84-1.27-1.03-1.54-2.81-2.41-4.14-1.27-2.15-4.34-3.87-3.76-6.78.2-1.14.91-2.28,1.15-3.4.62-2.69-1.12-5.19-2.17-7.54-2.82-5.58-6.89-10.74-7.88-17.06-.55-3.14-.06-6.33-.19-9.5-.12-1.98-.73-3.92-1.41-5.75-.18-.43-.33-1.02-.69-1.33-.52-.36-.87.48-1.11.86-1.02,1.86-1.95,3.65-3.05,5.43-1.62,2.75-3.58,5.29-4.97,8.17-3.86,7.67-5.89,16.14-7.93,24.43-.73,3.3-1.15,6.65-2.44,9.8-1.3,3.19-3.3,7.5-6.84,8.45-1.25-.11-.08-1.88.18-2.53.5-1.13,1.03-2.26,1.4-3.44.43-1.48.64-3.01.2-4.5-.66-2.26-2.05-5.07-.32-7.19.66-.79,1.69-1.29,2.29-2.14.74-1.04.97-2.35,1.22-3.58.41-2.36.72-4.81.94-7.21.75-7.14.63-12.42,4.95-18.61,1.93-2.89,3.76-5.85,5-9.11,1.25-3.05,2.01-6.29,2.42-9.55.14-1.37.59-2.73.41-4.1-.42-1.87-1.83-3.36-2.48-5.12-2.22-4.73-2.75-10.6.74-14.85,3.25-4.34,8.62-7.44,9.91-13.02,1-4.25-1.56-8.15-3.69-11.61-2.78-3.82-6.99,1.05-9.26,3.17-3.72,4.04-7.62,7.9-12.26,10.88-2.08,1.34-4.24,2.47-6.48,3.49-2.57,1.25-5.33,2.5-7.01,4.93-1.66,2.34-2.33,5.48-4.82,7.16-.58.42-1.22.84-1.72.62-1-.7.08-3.67.4-4.64.8-2.14,2.01-4.05,3.58-5.69,3.67-3.89,8.65-6.2,12.53-9.85,2.28-2.01,4.42-4.2,6.46-6.46,3.12-3.64,5.82-7.57,8.92-11.21,3.78-4.74,9.57-3.31,12.43-7.01.76-1.11.91-2.66.46-4.03-.22-.63-.57-1.65-1.37-1.51-.92.38-1.16,2.56-2.05,3.09-.07,0-.1-.08-.1-.23.02-1.13,1.13-2.69.94-3.79-.15-.8-.85-1.34-1.33-1.96-1.43-1.71-2.57-4.06-1.99-6.28.04-.06.08,0,.12.19.11.72.13,1.51.31,2.23.42,1.75,1.59,3.33,2.94,4.49.87.75,1.46-.29,1.98-.95,1.41-2.27,8.9-9.15,5.63-11.33-2.22-1.57-5.3-1.27-7.52.15-.37.21-1.29.88-1.44.62-.13-.45.44-.91.78-1.26,1.88-1.56,4.43-1.9,6.8-1.64,9.89.49,10.91,9.19,8.52,17.02-.67,1.72-.34-1.32-.32-1.74.1-1.61.24-3.19.23-4.84.23-7.51-6.57-10.2-4.15-7.56,3.19,3.66,4.15,8.94,2.68,13.56-.49,1.76-1.77,3.24-3.7,3.26-.42.03-1.15.11-1.17.57.07.98.87,2.01,1.56,2.7,2.63,2.19,6.45.82,9.31-.24l.04-.02ZM394.94,94.47c10.01,16.75-8.97,19.4-9.73,29.85-.62,6.14,3.67,11.23,6.48,16.3,2.17,3.86,4.45,7.68,5.79,11.92,1.55,3.67,2.08,7.48,1.69,11.43-.5,6.61,2.08,11.79,5.46,17.24,1.83,3.4,6.01,9.61,4.77,13.36-.44,1.56-1.65,3.17-.86,4.62.46.91,1.26,1.67,1.95,2.41,1.42,1.36,2.14,3.2,2.81,5,.5,1.24,1.57,1.39,2.9,1.56.66.09,1.43.17,2.03-.13.69-.55-.78-.98-1.28-1.26-.45-.22-.87-.52-1.18-.91-.83-1.09-.81-2.54-.9-3.85-.06-1.28-.33-2.55-.62-3.8-2.43-7.93-5.33-15.71-7.3-23.78-1.45-6.51-1.64-13.18-2.6-19.76-.77-6.33-2.79-12.41-3.93-18.67-.03-.32-2.29-12.76-.56-9.26.42,1.44.86,2.92,1.24,4.34.17.45.27,1.84.98,1.43.98-1.14,1.3-2.72,1.79-4.11.22-.69.4-1.39.53-2.1.53-3.27.78-6.5,1.17-9.77.52-2.94,1.05-5.83,2.15-8.59.67-1.68,1.48-3.38,2.07-5.1.66-1.64.89-3.44,1.61-5.05,1.29-2,3.7-3.7,2.17-6.37-.53-.96-1.28-1.78-1.85-2.75-.48-.68-.42-1.45.38-1.86,4.25-2.28,8.54-4.6,12.17-7.84,8.34-7.08,14.68-16.26,23.29-23.05.23-.18.74-.59.76-.68.04-.1-.21-.03-.63.15-2.51,1.13-4.74,2.71-6.85,4.46-7.89,6.77-15.29,14.35-24.57,19.21-4.32,2.11-10.98,5.25-14.77.71-.74-.9-3.1-4.8-1.35-5.14,1.07.02,2.32.47,3.38-.04,2.28-1.09,2.37-4.67,2.27-6.9-.14-2.32-.85-4.62-2.25-6.52-.22-.32-.55-.73-.91-.71-.29.06-.46.51-.56.82-.21.65-.47,1.27-.81,1.86-1.11,1.96-2.6,3.71-3.92,5.55-.67,1.08-1.81,2.01-2.12,3.24-.11.97.98,2.05,1.18,3.12.63,2.08-.1,4.54-1.77,5.93-4.57,3.17-7.19,1.15-11.45,6.61-2.16,2.5-3.98,5.3-6.13,7.81-3.78,4.64-7.97,8.93-12.9,12.35-4.61,3.33-10.17,6.56-11.85,12.36-.19.52-.26,1.68.59.9,1.7-1.99,2.25-4.83,4.05-6.78,2.63-3.21,6.93-4.39,10.44-6.38,1.91-1.11,3.72-2.29,5.5-3.6,3.35-2.54,6.31-5.53,9.17-8.58,4.18-4.25,9.15-8.77,12.9-1.26l.02.03ZM389.16,159.99c1-1.54,1.9-3.2,2.88-4.76,1-1.59,1.88-3.31,2.59-5.04.41-1.05-.19-2.12-.65-3.05-.74-1.56-1.61-3.04-2.5-4.51-.46-.59-1.81-3.83-2.14-1.71-.24,1.62-.6,3.27-.93,4.9-.26,1.41-.59,2.81-1.11,4.14-.58,1.5-1.03,3.05-1.73,4.48-.85,1.5-1.7,3.07-2.58,4.55-.75,1.23-1.64,2.4-2.34,3.68-1.47,2.36-2.53,4.96-2.91,7.72-.56,4.47-.82,8.95-1.35,13.42-.24,1.94-.62,3.87-1.23,5.73-.2.62-.46,1.23-.88,1.72-.58.72-1.45,1.11-2.04,1.84-1.5,1.74-.24,3.77.24,5.64.76,2.81.38,4.4-.37,7.11-.15.65.03.62.39.13,2.44-3.33,3.59-7.4,4.27-11.41.39-1.99.86-3.97,1.3-5.96.34-1.6.87-3.14,1.25-4.73.52-2.32,1.27-4.58,1.93-6.86.45-1.56,1.08-3.05,1.57-4.6.57-1.6,1.31-3.15,1.96-4.71,1.21-2.65,2.88-5.18,4.35-7.7l.02-.03Z"/>
          <path class="cls-5" d="M387.3,65.09c-2.31.29-3.43-1.64-3.3-3.78.06-.64.09-1.43.52-1.93.26-.04.08,1.1.1,1.32-.03.98.18,2.1.82,2.74.28.29.65.5,1.04.59.38.11.91.07.48-.44-.42-.46-.93-1.09-.97-1.78-.04-.54.1-1.21.38-1.31.16.02.2.21.27.36.16.52.3,1.12.62,1.57.31.57,1.23.99,1.39,1.51.12.68-.75,1.03-1.3,1.14h-.04Z"/>
          <path class="cls-5" d="M387.81,54.73c1.54-.89,4.24-.56,5.23,1.01.05.13-.08.15-.2.15-.68-.07-.53.49-.93.86-.29.2-.68.08-.99-.02-.9-.3-1.83-.7-2.8-.64-.36,0-.93.19-1.17-.14-.19-.29.4-.99.82-1.2l.04-.02Z"/>
          <path class="cls-5" d="M391.2,62.44c.09-.56.61-1.57,1.14-1.25.49.42.32,1.36.47,1.95.19,1.25.98,2.29,1.69,3.28.6.91.13.92-.61.14-.64-.66-1.27-1.36-1.62-2.21-.23-.52-.28-1.14-.39-1.34-.04-.05-.07.11-.08.41-.08.7.22,1.51.27,2.2,0,.09-.04.19-.14.14-.79-.58-.95-2.31-.73-3.28v-.04Z"/>
          <path class="cls-5" d="M390.48,57.28c.29.17.47.41.36.5-.32.15-.78-.14-1.11-.22-.69-.24-1.35-.19-2.11-.19-.28,0-.67.04-.92-.05-.05-.03-.03-.06.06-.1,1.21-.45,2.58-.48,3.68.04l.04.02Z"/>
        </g>
      </g>
    </g>
  </g>
</svg>